<svg width="159" height="126" viewBox="0 0 159 126" fill="none" xmlns="http://www.w3.org/2000/svg">
<path d="M23.424 17.4V23.736H15.312V51H8.688V23.736H0.624V17.4H15.312H23.424ZM45.5625 51L43.6425 44.952H30.7785L28.8585 51H21.7065L33.1305 17.4H41.3385L52.7625 51H45.5625ZM32.7465 38.76H41.6745L37.2105 24.744L32.7465 38.76ZM62.6659 44.664H75.1459V51H56.0419V17.4H62.6659V44.664ZM105.079 51H97.4471L85.4471 35.208V51H78.8231V17.4H85.4471V32.232L96.9671 17.4H104.599L92.1671 33.768L105.079 51Z" fill="black"/>
<path d="M78 76.4V110H71.424V87.44L63.984 104.624H59.184L51.744 87.44V110H45.12V76.4H51.744H52.656L61.584 96.944L70.464 76.4H78ZM90.8846 103.664H104.181V110H86.4206H84.2606V76.4H90.8846H103.941V82.736H90.8846V89.936H102.741V96.128H90.8846V103.664Z" fill="black"/>
<g filter="url(#filter0_d_112_60)">
<path d="M116 11C116 7.13401 119.134 4 123 4V4V122V122C119.134 122 116 118.866 116 115V11Z" fill="black"/>
</g>
<path d="M134.584 80V75.056L145.96 63.536C148.584 60.912 149.896 58.576 149.896 56.528C149.896 55.152 149.512 54.08 148.744 53.312C148.008 52.544 147 52.16 145.72 52.16C144.312 52.16 143.192 52.544 142.36 53.312C141.56 54.048 141.16 55.168 141.16 56.672H134.584C134.584 53.12 135.656 50.416 137.8 48.56C139.944 46.672 142.536 45.728 145.576 45.728C148.552 45.728 151.112 46.656 153.256 48.512C155.432 50.368 156.52 53.04 156.52 56.528C156.52 60.048 154.744 63.552 151.192 67.04L144.424 73.616H157.048V80H134.584Z" fill="black"/>
<g filter="url(#filter1_d_112_60)">
<circle cx="146" cy="18" r="4" fill="#0a0014"/>
</g>
<g filter="url(#filter2_d_112_60)">
<circle cx="146" cy="108" r="4" fill="#0a0014"/>
</g>
<defs>
<filter id="filter0_d_112_60" x="116" y="0" width="16" height="126" filterUnits="userSpaceOnUse" color-interpolation-filters="sRGB">
<feFlood flood-opacity="0" result="BackgroundImageFix"/>
<feColorMatrix in="SourceAlpha" type="matrix" values="0 0 0 0 0 0 0 0 0 0 0 0 0 0 0 0 0 0 127 0" result="hardAlpha"/>
<feOffset dx="5"/>
<feGaussianBlur stdDeviation="2"/>
<feComposite in2="hardAlpha" operator="out"/>
<feColorMatrix type="matrix" values="0 0 0 0 0 0 0 0 0 0 0 0 0 0 0 0 0 0 0.25 0"/>
<feBlend mode="normal" in2="BackgroundImageFix" result="effect1_dropShadow_112_60"/>
<feBlend mode="normal" in="SourceGraphic" in2="effect1_dropShadow_112_60" result="shape"/>
</filter>
<filter id="filter1_d_112_60" x="142" y="10" width="17" height="16" filterUnits="userSpaceOnUse" color-interpolation-filters="sRGB">
<feFlood flood-opacity="0" result="BackgroundImageFix"/>
<feColorMatrix in="SourceAlpha" type="matrix" values="0 0 0 0 0 0 0 0 0 0 0 0 0 0 0 0 0 0 127 0" result="hardAlpha"/>
<feOffset dx="5"/>
<feGaussianBlur stdDeviation="2"/>
<feComposite in2="hardAlpha" operator="out"/>
<feColorMatrix type="matrix" values="0 0 0 0 0 0 0 0 0 0 0 0 0 0 0 0 0 0 0.25 0"/>
<feBlend mode="normal" in2="BackgroundImageFix" result="effect1_dropShadow_112_60"/>
<feBlend mode="normal" in="SourceGraphic" in2="effect1_dropShadow_112_60" result="shape"/>
</filter>
<filter id="filter2_d_112_60" x="142" y="100" width="17" height="16" filterUnits="userSpaceOnUse" color-interpolation-filters="sRGB">
<feFlood flood-opacity="0" result="BackgroundImageFix"/>
<feColorMatrix in="SourceAlpha" type="matrix" values="0 0 0 0 0 0 0 0 0 0 0 0 0 0 0 0 0 0 127 0" result="hardAlpha"/>
<feOffset dx="5"/>
<feGaussianBlur stdDeviation="2"/>
<feComposite in2="hardAlpha" operator="out"/>
<feColorMatrix type="matrix" values="0 0 0 0 0 0 0 0 0 0 0 0 0 0 0 0 0 0 0.25 0"/>
<feBlend mode="normal" in2="BackgroundImageFix" result="effect1_dropShadow_112_60"/>
<feBlend mode="normal" in="SourceGraphic" in2="effect1_dropShadow_112_60" result="shape"/>
</filter>
</defs>
</svg>
